<?xml version="1.0" encoding="UTF-8"?> <svg xmlns="http://www.w3.org/2000/svg" xmlns:xlink="http://www.w3.org/1999/xlink" id="Ebene_1" viewBox="0 0 1914.8 493.94"><defs><style>.cls-1{fill:#ff8000;}.cls-1,.cls-2,.cls-3{fill-rule:evenodd;}.cls-2{fill:url(#Unbenannter_Verlauf);}.cls-3{fill:#001940;}</style><linearGradient id="Unbenannter_Verlauf" x1="0" y1="1206.99" x2="1" y2="1206.99" gradientTransform="translate(113852.8 -38927.12) rotate(-109.05) scale(99.62 -99.62)" gradientUnits="userSpaceOnUse"><stop offset="0" stop-color="#ff8000"></stop><stop offset="1" stop-color="#ec2837"></stop></linearGradient></defs><path class="cls-3" d="M569.67,27.89c59.93,0,87.86,30.83,87.86,79.71v70.98h-61.09v-64.59c0-22.69-7.57-32.58-27.35-32.58s-26.77,12.22-26.77,33.75v43.06c0,26.18,20.95,36.07,52.96,54.68l3.86,2.21c33.29,19.09,61.89,39.3,61.89,89.72v63.42c0,57.02-30.83,87.86-91.35,87.86-67.49,0-93.08-30.26-93.08-89.6v-79.7h64v76.8c0,22.69,6.98,34.91,29.67,34.91s28.51-12.8,28.51-33.17v-52.95c0-29.09-21.53-40.14-52.37-57.6-35.49-20.36-66.32-40.14-66.32-91.34v-50.62c0-52.94,29.67-84.94,89.59-84.94h0ZM775.63,107.6c62.83,0,90.18,36.65,90.18,94.25v96h-121.03v61.68c0,29.09,8.72,41.31,31.42,41.31,21.53,0,27.92-13.97,27.92-38.4v-36.65h61.67v37.23c0,54.69-20.36,92.51-90.18,92.51-61.66.58-90.76-31.42-90.76-94.84v-157.67c0-61.67,34.91-95.42,90.77-95.42h0ZM1824.61,107.6c62.83,0,90.18,36.65,90.18,94.25v96h-121.02v61.68c0,29.09,8.72,41.31,31.41,41.31s27.92-13.97,27.92-38.4v-36.65h61.68v37.23c0,54.69-20.36,92.51-90.18,92.51-61.67.58-90.77-31.42-90.77-94.84v-157.67c0-61.67,34.91-95.42,90.77-95.42ZM979.26,108.18c59.35,0,87.28,27.35,87.28,83.2v258.91h-48.29l-8.14-38.98c-9.31,29.09-30.83,43.63-60.51,43.63-45.39,0-64.01-24.43-64.01-76.22v-34.33c0-27.92,6.99-44.8,20.95-58.18,13.96-12.79,30.25-18.04,58.76-27.92,31.41-11.06,41.31-16.87,41.31-40.73v-27.34c0-22.11-8.15-31.41-26.77-31.41s-28.51,10.47-28.51,32.58v50.61h-59.93v-52.95c0-50.03,29.09-80.86,87.85-80.86h0ZM1312.63,108.18c59.34,0,87.27,27.35,87.27,83.2v258.91h-48.29l-8.15-38.98c-9.31,29.09-30.83,43.63-60.51,43.63-45.38,0-64-24.43-64-76.22v-34.33c0-27.92,6.98-44.8,20.94-58.18,13.97-12.79,30.26-18.04,58.76-27.92,31.42-11.06,41.31-16.87,41.31-40.73v-27.34c0-22.11-8.14-31.41-26.77-31.41s-28.51,10.47-28.51,32.58v50.61h-59.93v-52.95c0-50.03,29.09-80.86,87.86-80.86h0ZM1491.82,31.87v116.46c8.14-26.18,24.43-40.14,51.78-40.14,45.38,0,69.23,29.68,69.23,104.72v131.5c0,79.71-23.27,110.55-70.4,110.55-31.99,0-48.29-18.04-55.27-46.55l-6.41,41.9h-50.03V31.87h61.09ZM1233.51,33.13v58.18h-54.68v358.98h-62.84V91.3h-54.68v-58.17h172.21ZM1704.76,31.87v418.42h-61.67V31.87h61.67ZM1006.61,278.07c-3.5,5.82-10.48,9.31-22.11,13.38-13.97,5.23-22.12,9.89-27.35,16.87-5.23,6.99-8.14,16.29-8.14,33.17v33.17c0,19.2,9.31,29.67,25.6,29.67,20.36,0,32-17.45,32-44.8v-81.45ZM1339.98,278.07c-3.49,5.82-10.47,9.31-22.11,13.38-13.97,5.23-22.11,9.89-27.34,16.87-5.24,6.99-8.15,16.29-8.15,33.17v33.17c0,19.2,9.31,29.67,25.6,29.67,20.37,0,32-17.45,32-44.8v-81.45ZM1521.49,161.71c-20.94,0-30.25,19.2-30.25,48.87v141.38c0,32.58,10.47,47.72,30.25,47.72s29.68-13.38,29.68-52.96v-135.56c0-35.49-9.31-49.45-29.68-49.45ZM776.21,161.13c-22.12,0-31.42,13.38-31.42,43.05v48.29h61.09v-50.03c0-28.51-7.57-41.31-29.67-41.31ZM1825.2,161.13c-22.11,0-31.42,13.38-31.42,43.05v48.29h61.1v-50.03c0-28.51-7.57-41.31-29.68-41.31Z"></path><path class="cls-2" d="M45.53,377.5l116.44,116.44,167.37-167.37c30.37-30.37,30.37-79.61,0-109.98l-61.45-61.46-1.1-1.1-183.86,183.46,1.29,1.29-38.7,38.7Z"></path><path class="cls-1" d="M84.23,338.8l222.37-222.35L190.15,0,22.78,167.37c-30.37,30.37-30.37,79.61,0,109.98l61.45,61.45Z"></path></svg> 